<svg class="h-9 w-9" width="36" height="36" viewBox="0 0 128 128">
        <linearGradient
          id="a"
          gradientUnits="userSpaceOnUse"
          x1="107.843"
          x2="20.157"
          y1="130.593"
          y2="42.907"
        >
          <stop offset="0" stop-color="#3ba9fd" />
          <stop offset="1" stop-color="#bae543" />
        </linearGradient>
        <path
          fill="url(#a)"
          d="M31.287 69.957l1.8-3.6a1.75 1.75 0 013.131 1.565l-1.8 3.6a1.75 1.75 0 11-3.131-1.564zm34.089-55.478a4.263 4.263 0 012.7 2.822 1.75 1.75 0 003.358-.99 7.768 7.768 0 00-4.923-5.143 1.75 1.75 0 00-1.137 3.311zM123.25 109.5a13.74 13.74 0 01-25.982 6.25H30.732a13.743 13.743 0 11-12.346-19.994l10.225-20.449a1.75 1.75 0 113.131 1.564L22.06 96.234a13.687 13.687 0 014.912 2.459l3.043-6.086v-.006L60.44 31.766a13.7 13.7 0 01-4.913-2.459L38.961 62.438a1.75 1.75 0 11-3.131-1.565l17.116-34.23a13.75 13.75 0 1122.108 0l34.56 69.113a13.619 13.619 0 015.49 1.187 1.751 1.751 0 01-1.43 3.2 10.142 10.142 0 00-4.174-.889 10.256 10.256 0 108.957 5.271 1.751 1.751 0 013.057-1.707 13.757 13.757 0 011.736 6.682zM67.56 31.766L97.981 92.6v.006l3.043 6.086a13.687 13.687 0 014.912-2.459L72.473 29.307a13.7 13.7 0 01-4.913 2.459zM64 84.673a10.25 10.25 0 10-10.25-10.25A10.261 10.261 0 0064 84.673zm13.75-10.25a13.738 13.738 0 01-.227 2.425l13.971 10.606L70.25 44.971v17.22a13.753 13.753 0 017.5 12.232zM64 32.473l-2.75 5.5V60.95a13.789 13.789 0 015.5 0V37.973zm9.049 52.276l24.259 18.417a13.79 13.79 0 011.138-1.809l-3.41-6.821-18.659-14.164a13.8 13.8 0 01-3.328 4.377zM57.75 44.971L36.506 87.454l13.971-10.606a13.638 13.638 0 017.273-14.657zm-7.02 47.377l-14.361 10.9h55.262L69.957 86.8a13.68 13.68 0 01-18.334-6.424l-18.659 14.16-3.41 6.821a13.79 13.79 0 011.138 1.809l17.921-13.6a1.75 1.75 0 012.117 2.787zM53.75 18.5A10.25 10.25 0 1064 8.25 10.261 10.261 0 0053.75 18.5zm-25 91a10.25 10.25 0 10-10.25 10.25 10.261 10.261 0 0010.25-10.25zm67.277 2.75a13.789 13.789 0 010-5.5H31.973a13.789 13.789 0 010 5.5z"
        />
      </svg>